{"title":"Falling.Skies.S05E06.HDTV.480p.x264.AAC-VYTO [P2PDL]","uid":12186960,"size":153885726,"categoryP":"video","categoryS":"hd___tv_shows","magnet":"?xt=urn:btih:dc6d0cca2ff654a5bacd6ef7ad16329ee44dd73c&amp;dn=Falling.Skies.S05E06.HDTV.480p.x264.AAC-VYTO+%5BP2PDL%5D&amp;tr=udp%3A%2F%2Ftracker.openbittorrent.com%3A80&amp;tr=udp%3A%2F%2Fopen.demonii.com%3A1337&amp;tr=udp%3A%2F%2Ftracker.coppersurfer.tk%3A6969&amp;tr=udp%3A%2F%2Fexodus.desync.com%3A6969","seeders":2,"leechers":2,"uploader":"ValidusVyto","files":6,"time":1438585607,"description":"____    ____ ____    ____ .___________.  ______   \n     /   /      /   / |           | /  __    \n    /   /      /   /  `---|  |----`|  |  |  | \n        /     _    _/       |  |     |  |  |  | \n       /        |  |         |  |     |  `--'  | \n    __/         |__|         |__|      ______/  \n                                                  \nPresenting Small Encodes with quality for years!\n                                                                                                   \n                                                                                                   \n\nFalling.Skies.S05E06.HDTV.480p.x264.AAC-VYTO\n\n\nGeneral\nFormat                         : MPEG-4\nFile size                      : 141 MiB\nDuration                       : 41mn 56s\nOverall bit rate               : 470 Kbps\n\nVideo\nFormat                         : AVC\nBit rate                       : 435 Kbps\nWidth                          : 720 pixels\nHeight                         : 400 pixels\nDisplay aspect ratio           : 16:9\nFrame rate mode                : Constant\nFrame rate                     : 23.976 fps\nBit depth                      : 8 bits\nStream size                    : 131 MiB (93%)\nWriting library                : x264 core 146 r2538 121396c\n\nAudio\nFormat                         : AAC\nBit rate mode                  : Variable\nBit rate                       : 32.0 Kbps\nChannel(s)                     : 2 channel\nChannel positions              : Front: L R\nSampling rate                  : 48.0 KHz\nCompression mode               : Lossy\nStream size                    : 9.60 MiB (7%)\n\n\nScreenshots:\n &lt;a href=&quot;\nhttp://ititli.com/gN&quot; rel=&quot;nofollow&quot; target=&quot;_NEW&quot;&gt;\nhttp://ititli.com/gN&lt;/a&gt; &lt;a href=&quot;\nhttp://ititli.com/gP&quot; rel=&quot;nofollow&quot; target=&quot;_NEW&quot;&gt;\nhttp://ititli.com/gP&lt;/a&gt; &lt;a href=&quot;\nhttp://ititli.com/gf&quot; rel=&quot;nofollow&quot; target=&quot;_NEW&quot;&gt;\nhttp://ititli.com/gf&lt;/a&gt; &lt;a href=&quot;\nhttp://ititli.com/gu&quot; rel=&quot;nofollow&quot; target=&quot;_NEW&quot;&gt;\nhttp://ititli.com/gu&lt;/a&gt; &lt;a href=&quot;\nhttp://ititli.com/gv&quot; rel=&quot;nofollow&quot; target=&quot;_NEW&quot;&gt;\nhttp://ititli.com/gv&lt;/a&gt; &lt;a href=&quot;\nhttp://ititli.com/gR&quot; rel=&quot;nofollow&quot; target=&quot;_NEW&quot;&gt;\nhttp://ititli.com/gR&lt;/a&gt; &lt;a href=&quot;\nhttp://ititli.com/gy&quot; rel=&quot;nofollow&quot; target=&quot;_NEW&quot;&gt;\nhttp://ititli.com/gy&lt;/a&gt; &lt;a href=&quot;\nhttp://ititli.com/g3&quot; rel=&quot;nofollow&quot; target=&quot;_NEW&quot;&gt;\nhttp://ititli.com/g3&lt;/a&gt; &lt;a href=&quot;\nhttp://ititli.com/gE&quot; rel=&quot;nofollow&quot; target=&quot;_NEW&quot;&gt;\nhttp://ititli.com/gE&lt;/a&gt; &lt;a href=&quot;\nhttp://ititli.com/gQ&quot; rel=&quot;nofollow&quot; target=&quot;_NEW&quot;&gt;\nhttp://ititli.com/gQ&lt;/a&gt; &lt;a href=&quot;\nhttp://ititli.com/gS&quot; rel=&quot;nofollow&quot; target=&quot;_NEW&quot;&gt;\nhttp://ititli.com/gS&lt;/a&gt; &lt;a href=&quot;\nhttp://ititli.com/gZ&quot; rel=&quot;nofollow&quot; target=&quot;_NEW&quot;&gt;\nhttp://ititli.com/gZ&lt;/a&gt;\n\n----------------------------------------------------------------------------------------------------\n\n\nEncoder Notes: Looking For Early Access To Anything You Can Provide DVDScr, R5, DVDR, BluRay, Direct\nAudio, Music Releases and Seedboxes. If You Got anything to offer please contact us.\n\nSupport us by donating BC - 1FgwdzPsd1y25Gea8wP1qni35uGCtmkRCD","torrent":{"xt":"urn:btih:dc6d0cca2ff654a5bacd6ef7ad16329ee44dd73c","amp;dn":"Falling.Skies.S05E06.HDTV.480p.x264.AAC-VYTO+%5BP2PDL%5D","amp;tr":["udp%3A%2F%2Ftracker.openbittorrent.com%3A80","udp%3A%2F%2Fopen.demonii.com%3A1337","udp%3A%2F%2Ftracker.coppersurfer.tk%3A6969","udp%3A%2F%2Fexodus.desync.com%3A6969"],"infoHash":"dc6d0cca2ff654a5bacd6ef7ad16329ee44dd73c","infoHashBuffer":{"type":"Buffer","data":[220,109,12,202,47,246,84,165,186,205,110,247,173,22,50,158,228,77,215,60]},"announce":[],"urlList":[]}}